<svg width="8" height="8" viewBox="0 0 8 8" fill="none" xmlns="http://www.w3.org/2000/svg">
<path fill-rule="evenodd" clip-rule="evenodd" d="M2.75969 6.78359L6.07899 2.49111C6.25939 2.25963 6.32353 1.99201 6.2634 1.71952C6.21128 1.47179 6.05895 1.23626 5.83045 1.05757L5.27322 0.614921C4.78815 0.229125 4.18683 0.269735 3.84207 0.712385L3.46925 1.19605C3.42115 1.25656 3.43317 1.3459 3.49331 1.39463C3.49331 1.39463 4.43538 2.14998 4.45542 2.16623C4.51956 2.22714 4.56767 2.30836 4.57969 2.40583C4.59974 2.59669 4.46745 2.77538 4.27102 2.79974C4.17881 2.81193 4.09062 2.7835 4.02648 2.73071L3.0363 1.94287C2.98819 1.90673 2.91604 1.91444 2.87595 1.96318L0.522771 5.00893C0.370436 5.1998 0.318322 5.44752 0.370436 5.68712L0.671097 6.9907C0.687133 7.05974 0.747265 7.10847 0.819424 7.10847L2.14233 7.09223C2.38286 7.08817 2.60736 6.97852 2.75969 6.78359ZM4.61225 6.3772H6.7694C6.97986 6.3772 7.15104 6.5506 7.15104 6.76381C7.15104 6.97741 6.97986 7.15041 6.7694 7.15041H4.61225C4.40179 7.15041 4.23062 6.97741 4.23062 6.76381C4.23062 6.5506 4.40179 6.3772 4.61225 6.3772Z" fill="#0667B0"/>
</svg>
