<svg width="16" height="14" viewBox="0 0 16 14" fill="none" xmlns="http://www.w3.org/2000/svg">
<path opacity="0.6" d="M7.05158 12.9779C6.97908 12.9073 6.66908 12.6406 6.41408 12.3922C4.81033 10.9358 2.18533 7.13648 1.38408 5.14793C1.25533 4.84593 0.982832 4.08241 0.965332 3.67447C0.965332 3.28358 1.05533 2.91096 1.23783 2.55538C1.49283 2.11213 1.89408 1.75655 2.36783 1.56171C2.69658 1.43629 3.68033 1.24145 3.69783 1.24145C4.77408 1.04661 6.52283 0.939453 8.45533 0.939453C10.2966 0.939453 11.9741 1.04661 13.0666 1.20614C13.0841 1.2244 14.3066 1.41924 14.7253 1.63234C15.4903 2.02323 15.9653 2.78675 15.9653 3.60385V3.67447C15.9466 4.20662 15.4716 5.32572 15.4541 5.32572C14.6516 7.20711 12.1553 10.9187 10.4966 12.4105C10.4966 12.4105 10.0703 12.8306 9.80408 13.0132C9.42158 13.2982 8.94783 13.4395 8.47408 13.4395C7.94533 13.4395 7.45283 13.2799 7.05158 12.9779Z" fill="#2E2E2E"/>
</svg>
