<svg width="40" height="40" viewBox="0 0 40 40" fill="none" xmlns="http://www.w3.org/2000/svg">
<path opacity="0.2" d="M20 40C31.0417 40 40 31.0417 40 20C40 8.95833 31.0417 0 20 0C8.95833 0 0 8.95833 0 20C0 31.0417 8.95833 40 20 40Z" fill="#BF3224"/>
<mask id="path-2-inside-1_198_2172" fill="white">
<path d="M21.8742 20.4999L27.7149 26.3409C28.095 26.7208 28.095 27.3351 27.7149 27.7151C27.335 28.095 26.7207 28.095 26.3408 27.7151L20.4999 21.8741L14.6592 27.7151C14.2791 28.095 13.665 28.095 13.2851 27.7151C12.905 27.3351 12.905 26.7208 13.2851 26.3409L19.1258 20.4999L13.2851 14.6589C12.905 14.279 12.905 13.6647 13.2851 13.2847C13.4744 13.0952 13.7234 13 13.9721 13C14.2209 13 14.4697 13.0952 14.6592 13.2847L20.4999 19.1257L26.3408 13.2847C26.5303 13.0952 26.7791 13 27.0279 13C27.2766 13 27.5254 13.0952 27.7149 13.2847C28.095 13.6647 28.095 14.279 27.7149 14.6589L21.8742 20.4999Z"/>
</mask>
<path d="M21.8742 20.4999L27.7149 26.3409C28.095 26.7208 28.095 27.3351 27.7149 27.7151C27.335 28.095 26.7207 28.095 26.3408 27.7151L20.4999 21.8741L14.6592 27.7151C14.2791 28.095 13.665 28.095 13.2851 27.7151C12.905 27.3351 12.905 26.7208 13.2851 26.3409L19.1258 20.4999L13.2851 14.6589C12.905 14.279 12.905 13.6647 13.2851 13.2847C13.4744 13.0952 13.7234 13 13.9721 13C14.2209 13 14.4697 13.0952 14.6592 13.2847L20.4999 19.1257L26.3408 13.2847C26.5303 13.0952 26.7791 13 27.0279 13C27.2766 13 27.5254 13.0952 27.7149 13.2847C28.095 13.6647 28.095 14.279 27.7149 14.6589L21.8742 20.4999Z" fill="#BF3224"/>
<path d="M21.8742 20.4999L-71.4662 113.836L-164.797 20.4999L-71.4662 -72.8358L21.8742 20.4999ZM27.7149 26.3409L-65.6023 119.7L-65.6139 119.688L-65.6255 119.677L27.7149 26.3409ZM27.7149 27.7151L-65.6241 -65.6221L-65.6132 -65.633L-65.6023 -65.6439L27.7149 27.7151ZM26.3408 27.7151L-66.9983 121.052L-66.9983 121.052L26.3408 27.7151ZM20.4999 21.8741L-72.8406 -71.4617L20.4985 -164.805L113.839 -71.4631L20.4999 21.8741ZM14.6592 27.7151L108 121.051L107.988 121.062L107.976 121.074L14.6592 27.7151ZM13.2851 27.7151L106.602 -65.6439L106.613 -65.633L106.624 -65.6221L13.2851 27.7151ZM13.2851 26.3409L106.626 119.677L106.614 119.688L106.602 119.7L13.2851 26.3409ZM19.1258 20.4999L112.466 -72.8358L205.797 20.4999L112.466 113.836L19.1258 20.4999ZM13.2851 14.6589L106.602 -78.7001L106.614 -78.6885L106.626 -78.6768L13.2851 14.6589ZM13.2851 13.2847L106.668 106.578L106.635 106.611L106.602 106.644L13.2851 13.2847ZM14.6592 13.2847L107.998 -80.0524L108 -80.051L14.6592 13.2847ZM20.4999 19.1257L113.839 112.463L20.4985 205.805L-72.8406 112.461L20.4999 19.1257ZM26.3408 13.2847L119.68 106.622V106.622L26.3408 13.2847ZM27.7149 13.2847L-65.6023 106.644L-65.6132 106.633L-65.6241 106.622L27.7149 13.2847ZM27.7149 14.6589L-65.6255 -78.6768L-65.6139 -78.6885L-65.6023 -78.7001L27.7149 14.6589ZM115.215 -72.8358L121.055 -66.9948L-65.6255 119.677L-71.4662 113.836L115.215 -72.8358ZM121.032 -67.0181C172.989 -15.0842 172.989 69.1401 121.032 121.074L-65.6023 -65.6439C-116.799 -14.4699 -116.799 68.5258 -65.6023 119.7L121.032 -67.0181ZM121.054 121.052C69.1246 172.983 -15.0689 172.983 -66.9983 121.052L119.68 -65.6221C68.5103 -116.793 -14.4546 -116.793 -65.6241 -65.6221L121.054 121.052ZM-66.9983 121.052L-72.8391 115.211L113.839 -71.4631L119.68 -65.6221L-66.9983 121.052ZM113.84 115.21L108 121.051L-78.6813 -65.6207L-72.8406 -71.4617L113.84 115.21ZM107.976 121.074C56.064 172.963 -28.1126 172.995 -80.054 121.052L106.624 -65.6221C55.4426 -116.805 -27.5057 -116.773 -78.658 -65.6439L107.976 121.074ZM-80.0321 121.074C-131.989 69.1401 -131.989 -15.0842 -80.0321 -67.0181L106.602 119.7C157.799 68.5258 157.799 -14.4699 106.602 -65.6439L-80.0321 121.074ZM-80.0554 -66.9948L-74.2147 -72.8358L112.466 113.836L106.626 119.677L-80.0554 -66.9948ZM-74.2147 113.836L-80.0554 107.995L106.626 -78.6768L112.466 -72.8358L-74.2147 113.836ZM-80.0321 108.018C-131.989 56.084 -131.989 -28.1403 -80.0321 -80.0743L106.602 106.644C157.799 55.4697 157.799 -27.526 106.602 -78.7001L-80.0321 108.018ZM-80.0978 -80.0086C-54.1686 -105.963 -19.8937 -119 13.9721 -119V145C47.3404 145 81.1174 132.153 106.668 106.578L-80.0978 -80.0086ZM13.9721 -119C47.875 -119 82.1119 -105.939 107.998 -80.0524L-78.6798 106.622C-53.1725 132.13 -19.4331 145 13.9721 145V-119ZM108 -80.051L113.84 -74.21L-72.8406 112.461L-78.6813 106.62L108 -80.051ZM-72.8391 -74.2114L-66.9983 -80.0524L119.68 106.622L113.839 112.463L-72.8391 -74.2114ZM-66.9983 -80.0524C-41.1119 -105.939 -6.87493 -119 27.0279 -119V145C60.4331 145 94.1725 132.13 119.68 106.622L-66.9983 -80.0524ZM27.0279 -119C60.9306 -119 95.1676 -105.939 121.054 -80.0524L-65.6241 106.622C-40.1168 132.13 -6.37739 145 27.0279 145V-119ZM121.032 -80.0743C172.989 -28.1403 172.989 56.084 121.032 108.018L-65.6023 -78.7001C-116.799 -27.526 -116.799 55.4697 -65.6023 106.644L121.032 -80.0743ZM121.055 107.995L115.215 113.836L-71.4662 -72.8358L-65.6255 -78.6768L121.055 107.995Z" fill="#BF3224" mask="url(#path-2-inside-1_198_2172)"/>
</svg>
